<svg id="Capa_1" enable-background="new 0 0 512.388 512.388" height="512" viewBox="0 0 512.388 512.388" width="512" xmlns="http://www.w3.org/2000/svg"><g><path d="m470.656 466.575c-15.453-22.292-92.622-133.585-94.284-135.472-5.788-6.568-2.67-17.713-2.385-25.529.484-13.302-.352-30.481-11.215-45.393-8.873-12.18-20.932-20.538-30.447-26.459-12.546-7.809-25.721-14.521-38.66-21.636-1.558-.857-12.48-6.343-19.802-10.011 4.923-8.585 9.388-17.653 12.608-27.664 2.792-8.686 4.514-16.745 5.261-24.638.535-5.641.382-11.257-.455-16.694-.39-2.532.625-5.024 2.715-6.668 15.172-11.935 25.145-31.055 27.36-52.458 2.153-20.793-3.388-40.899-15.204-55.164-9.035-10.906-21.216-17.52-34.301-18.621-15.41-1.293-30.562 4.935-42.478 17.259-6.462-3.99-13.6-5.955-20.961-5.752-14.848.427-28.268 10.115-35.838 25.07-11.71-8.82-25.761-11.537-38.038-6.827-13.263 5.09-22.009 17.821-23.843 33.496-8.849-2.951-17.876-2.484-25.609 1.583-11.732 6.17-17.818 19.719-16.448 34.586-5.607.019-10.922 1.507-15.425 4.424-6.286 4.072-10.602 10.661-12.152 18.555-2.059 10.479.776 22.261 7.779 32.325 4.539 6.521 10.471 11.801 17.155 15.266 3.457 1.791 5.321 5.613 4.637 9.51-1.204 6.865-1.927 13.916-2.149 20.955-.131 4.141 3.119 7.603 7.259 7.733 4.12.148 7.603-3.119 7.733-7.259.2-6.333.85-12.671 1.932-18.839 1.821-10.382-3.206-20.597-12.509-25.419-4.531-2.348-8.592-5.984-11.745-10.516-4.625-6.646-6.634-14.447-5.373-20.865.538-2.737 1.944-6.495 5.589-8.856 3.109-2.014 7.12-2.517 11.497-1.534 4.175 8.464 10.46 15.978 18.202 21.621 1.333.972 2.879 1.44 4.412 1.44 2.315 0 4.599-1.069 6.067-3.083 2.44-3.348 1.705-8.039-1.643-10.479-7.891-5.751-14.558-14.492-16.147-24.301-1.297-8.008.5-17.883 8.313-21.99 5.686-2.99 13.415-1.97 20.467 2.616 2.952 12.323 9.207 21.458 15.909 29.497 1.483 1.78 3.616 2.698 5.765 2.698 1.693 0 3.396-.57 4.798-1.739 3.182-2.652 3.611-7.381.958-10.563-8.997-10.794-14.551-20.874-14.2-36.822 1.445-9.584 6.547-17.12 14.147-20.037 8.577-3.291 18.989-.14 27.334 8.007-3.272 14.11-3.55 33.335 5.265 48 1.407 2.341 3.89 3.638 6.436 3.638 1.315 0 2.647-.346 3.856-1.073 3.55-2.134 4.698-6.741 2.564-10.291-3.956-6.582-5.263-14.448-5.231-22.033.073-17.092 7.64-42.85 28.709-43.501 4.242-.131 8.426 1.019 12.314 3.333-9.879 21.137-14.07 49.874 1.784 73.91 1.442 2.186 3.832 3.371 6.268 3.371 1.417 0 2.851-.401 4.123-1.24 3.458-2.28 4.412-6.933 2.131-10.391-6.617-10.032-8.951-22.117-7.845-33.985.528-5.67 1.793-11.265 3.614-16.658 3.076-9.107 6.82-16.338 14.676-22.22 7.073-5.296 15.787-8.423 24.685-7.674 9.169.772 17.47 5.352 24.007 13.243 9.263 11.182 13.577 27.237 11.836 44.05-1.774 17.133-9.892 32.913-21.714 42.213-6.305 4.959-9.472 12.906-8.267 20.738.648 4.216.765 8.589.347 12.999-.357 3.768-.973 7.508-1.796 11.202-3.699 16.604-11.968 31.588-20.814 45.946-8.6 13.957-16.803 28.197-25.538 42.006l-30.75-24.549c-13.268-10.604-32.846-8.568-43.644 4.544-10.521 12.775-9.244 31.584 2.909 42.819.043.04.086.079.13.118l10.426 9.195c10.564 9.795 16.975 22.832 23.762 36.634 10.819 22.001 21.777 45.179 38.007 63.774 4.807 5.508 12.174 12.883 21.505 18.982 3.16 10.977 4.807 22.094 3.647 33.758-4.276 43.008-33.812 63.396-61.187 64.522-21.771.891-40.092-5.98-53.003-19.883-15.19-16.355-22.102-41.322-18.963-68.498 2.813-24.367 8.429-48.246 1.841-72.565-7.388-27.271-19.909-52.586-30.023-78.796-3.013-7.804-5.374-15.836-7.018-23.874-.83-4.058-4.794-6.67-8.851-5.845-4.058.83-6.675 4.793-5.845 8.851 1.811 8.853 4.408 17.691 7.72 26.271 9.913 25.686 22.282 50.535 29.538 77.315 6.034 22.272.312 44.636-2.264 66.923-3.642 31.538 4.694 60.853 22.873 80.426 15.086 16.245 35.83 24.754 60.202 24.754 1.457 0 2.927-.03 4.409-.091 20.822-.857 39.106-9.365 52.876-24.604 12.541-13.879 20.575-32.852 22.621-53.422.921-9.267.347-18.16-1.207-26.776 5.2 1.692 10.741 2.754 16.573 2.868 3.264.063 6.321 1.779 8.18 4.59 2.832 4.282 6.318 9.519 10.208 15.34 2.302 3.443 6.959 4.37 10.403 2.068 3.444-2.301 4.37-6.959 2.069-10.402-3.875-5.799-7.348-11.015-10.168-15.279-4.579-6.925-12.206-11.154-20.4-11.314-14.519-.282-30.715-9.461-44.436-25.182-15.302-17.532-25.654-39.803-35.848-60.53-4.855-9.872-9.756-19.796-16.236-28.728-6.083-8.385-13.724-14.88-21.42-21.669-6.266-5.849-6.909-15.591-1.453-22.215 5.615-6.819 15.798-7.879 22.703-2.359l32.851 26.226c11.25 10.56 22.778 22.141 29.337 36.351 1.266 2.743 3.979 4.359 6.814 4.359 1.052 0 2.12-.223 3.138-.692 3.761-1.735 5.402-6.191 3.667-9.952-6.425-13.921-18.975-27.557-24.468-33.15 6.175-9.766 20.233-32 26.89-42.527 8.596 4.307 18.478 9.277 19.669 9.933 12.694 6.987 25.647 13.562 37.965 21.228 5.679 3.535 11.239 7.348 16.266 11.776 14.424 12.706 19.023 27.786 18.331 46.793-.452 12.403-2.975 25.434 5.926 35.769 3.189 4.347 48.903 70.148 85.244 122.552h-106.585c-2.779-4.127-5.609-8.331-8.428-12.523-2.313-3.438-6.973-4.349-10.409-2.038-3.437 2.312-4.35 6.972-2.038 10.409 3.58 5.323 7.176 10.664 10.665 15.843 1.394 2.069 3.726 3.31 6.22 3.31h124.899c2.791 0 5.35-1.549 6.645-4.021 1.293-2.474 1.108-5.46-.481-7.753z"/></g></svg>